<mxfile host="app.diagrams.net" modified="2023-11-14T13:24:14.261Z" agent="Mozilla/5.0 (Macintosh; Intel Mac OS X 10_15_7) AppleWebKit/537.36 (KHTML, like Gecko) Chrome/117.0.0.0 Safari/537.36" version="21.7.5" etag="EHIS4U8PqoJnm-ChKM5C" type="github">
  <diagram name="第 1 页" id="b__gNLZHzFSi-3utlmoa">
    <mxGraphModel>
      <root>
        <mxCell id="0" />
        <mxCell id="1" parent="0" />
      </root>
    </mxGraphModel>
  </diagram>
</mxfile>
